<svg id="hubspot_header_1188x756px_less_animation" xmlns="http://www.w3.org/2000/svg" xmlns:xlink="http://www.w3.org/1999/xlink" viewBox="0 0 1188.1 756" shape-rendering="geometricPrecision" text-rendering="geometricPrecision" width="1188.1" height="756">
<style><![CDATA[
#hubspot_header_1188x756px_less_animation-s-g4 {animation: hubspot_header_1188x756px_less_animation-s-g4_c_o 9000ms linear 1 normal forwards}@keyframes hubspot_header_1188x756px_less_animation-s-g4_c_o { 0% {opacity: 0} 33.333333% {opacity: 0} 55.555556% {opacity: 1} 100% {opacity: 1}} #hubspot_header_1188x756px_less_animation-s-circle7 {animation: hubspot_header_1188x756px_less_animation-s-circle7_c_o 9000ms linear 1 normal forwards}@keyframes hubspot_header_1188x756px_less_animation-s-circle7_c_o { 0% {opacity: 0} 60% {opacity: 0} 80% {opacity: 1} 100% {opacity: 1}} #hubspot_header_1188x756px_less_animation-s-g6 {animation: hubspot_header_1188x756px_less_animation-s-g6_c_o 9000ms linear 1 normal forwards}@keyframes hubspot_header_1188x756px_less_animation-s-g6_c_o { 0% {opacity: 0} 60% {opacity: 0} 80% {opacity: 1} 100% {opacity: 1}} #hubspot_header_1188x756px_less_animation-s-g13 {animation: hubspot_header_1188x756px_less_animation-s-g13_c_o 9000ms linear 1 normal forwards}@keyframes hubspot_header_1188x756px_less_animation-s-g13_c_o { 0% {opacity: 0} 60% {opacity: 0} 80% {opacity: 1} 100% {opacity: 1}} #hubspot_header_1188x756px_less_animation-s-path34 {animation: hubspot_header_1188x756px_less_animation-s-path34_c_o 9000ms linear 1 normal forwards}@keyframes hubspot_header_1188x756px_less_animation-s-path34_c_o { 0% {opacity: 0} 60% {opacity: 0} 80% {opacity: 1} 100% {opacity: 1}} #hubspot_header_1188x756px_less_animation-s-path35 {animation: hubspot_header_1188x756px_less_animation-s-path35_c_o 9000ms linear 1 normal forwards}@keyframes hubspot_header_1188x756px_less_animation-s-path35_c_o { 0% {opacity: 0} 60% {opacity: 0} 80% {opacity: 1} 100% {opacity: 1}} #hubspot_header_1188x756px_less_animation-s-circle11 {animation: hubspot_header_1188x756px_less_animation-s-circle11_c_o 9000ms linear 1 normal forwards}@keyframes hubspot_header_1188x756px_less_animation-s-circle11_c_o { 0% {opacity: 0} 60% {opacity: 0} 80% {opacity: 1} 100% {opacity: 1}} #hubspot_header_1188x756px_less_animation-u-hubspot_sprocket_white_-2 {animation: hubspot_header_1188x756px_less_animation-u-hubspot_sprocket_white_-2_c_o 9000ms linear 1 normal forwards}@keyframes hubspot_header_1188x756px_less_animation-u-hubspot_sprocket_white_-2_c_o { 0% {opacity: 0} 60% {opacity: 0} 80% {opacity: 1} 100% {opacity: 1}} #hubspot_header_1188x756px_less_animation-s-g14_to {animation: hubspot_header_1188x756px_less_animation-s-g14_to__to 9000ms linear 1 normal forwards}@keyframes hubspot_header_1188x756px_less_animation-s-g14_to__to { 0% {transform: translate(244.305183px,398.431885px)} 32.222222% {transform: translate(244.305183px,441.278545px)} 66.666667% {transform: translate(244.305183px,380.840702px)} 100% {transform: translate(244.305183px,441.278544px)}} #hubspot_header_1188x756px_less_animation-u-ebene_15_tr {animation: hubspot_header_1188x756px_less_animation-u-ebene_15_tr__tr 9000ms linear 1 normal forwards}@keyframes hubspot_header_1188x756px_less_animation-u-ebene_15_tr__tr { 0% {transform: translate(333.186468px,340.846045px) rotate(0.997838deg)} 18.888889% {transform: translate(333.186468px,340.846045px) rotate(0.997838deg)} 40% {transform: translate(333.186468px,340.846045px) rotate(-30.523296deg)} 64.444444% {transform: translate(333.186468px,340.846045px) rotate(-10.894929deg)} 100% {transform: translate(333.186468px,340.846045px) rotate(-10.894929deg)}} #hubspot_header_1188x756px_less_animation-s-line5 {animation: hubspot_header_1188x756px_less_animation-s-line5_c_o 9000ms linear 1 normal forwards}@keyframes hubspot_header_1188x756px_less_animation-s-line5_c_o { 0% {opacity: 0} 48.888889% {opacity: 0} 60% {opacity: 1} 100% {opacity: 1}} #hubspot_header_1188x756px_less_animation-s-line6 {animation: hubspot_header_1188x756px_less_animation-s-line6_c_o 9000ms linear 1 normal forwards}@keyframes hubspot_header_1188x756px_less_animation-s-line6_c_o { 0% {opacity: 0} 48.888889% {opacity: 0} 60% {opacity: 1} 100% {opacity: 1}} #hubspot_header_1188x756px_less_animation-s-line7 {animation: hubspot_header_1188x756px_less_animation-s-line7_c_o 9000ms linear 1 normal forwards}@keyframes hubspot_header_1188x756px_less_animation-s-line7_c_o { 0% {opacity: 0} 75.555556% {opacity: 0} 86.666667% {opacity: 1} 100% {opacity: 1}} #hubspot_header_1188x756px_less_animation-s-line8 {animation: hubspot_header_1188x756px_less_animation-s-line8_c_o 9000ms linear 1 normal forwards}@keyframes hubspot_header_1188x756px_less_animation-s-line8_c_o { 0% {opacity: 0} 75.555556% {opacity: 0} 86.666667% {opacity: 1} 100% {opacity: 1}}
]]></style>
<g id="hubspot_header_1188x756px_less_animation-s-g1" transform="matrix(.861126 0 0 0.888487 62.880932 16.655261)"><g id="hubspot_header_1188x756px_less_animation-u-ebene_12" transform="matrix(1.372926 0 0 2.282702-152.111646-1614.042775)"><rect id="hubspot_header_1188x756px_less_animation-s-rect1" width="1118.180054" height="134.080002" rx="0" ry="0" transform="translate(0 987.349976)" fill="#ff704d"/></g><g id="hubspot_header_1188x756px_less_animation-u-ebene_10" transform="matrix(1.017952 0 0 1.017952 51.443877-370.29589)"><g id="hubspot_header_1188x756px_less_animation-s-g2"><path id="hubspot_header_1188x756px_less_animation-s-path1" d="M1062.28,638.07v342.17c0,.49-.25.93-.29,1.42-.25,2.01-.29,4.02-.69,5.98-4.36,21.58-23.38,37.04-45.39,36.91h-582.77c-3.12.03-6.24-.23-9.31-.78-20.32-3.68-35.68-20.47-37.55-41.03-.11-.67-.28-1.32-.49-1.96v-343.15c.14-.26.26-.54.34-.83c0-1.52.29-2.99.59-4.51c2.05-12.55,9.27-23.66,19.9-30.64c6.53-4.53,14.18-7.19,22.11-7.7.3-.08.6-.17.88-.29h589.09c.34.12.68.21,1.03.29c1.81.25,3.63.39,5.44.74c9.44,1.86,18.04,6.7,24.51,13.82c7.3,7.7,11.58,17.78,12.06,28.38.15.4.33.8.54,1.18Z" fill="#192733"/><rect id="hubspot_header_1188x756px_less_animation-s-rect2" width="608.51001" height="368.790009" rx="0" ry="0" transform="translate(422.200012 628.159973)" fill="#c4c1e4"/><rect id="hubspot_header_1188x756px_less_animation-s-rect3" width="622.039978" height="368.790009" rx="0" ry="0" transform="translate(413.670013 628.159973)" fill="#fff"/><rect id="hubspot_header_1188x756px_less_animation-s-rect4" width="622.179993" height="21.370001" rx="0" ry="0" transform="translate(413.579987 627.530029)" fill="#3e5974"/><circle id="hubspot_header_1188x756px_less_animation-s-circle1" r="4.66" transform="translate(431.029999 638.26001)" fill="#f56271"/><circle id="hubspot_header_1188x756px_less_animation-s-circle2" r="4.66" transform="translate(445.049988 638.26001)" fill="#ffbc4b"/><circle id="hubspot_header_1188x756px_less_animation-s-circle3" r="4.66" transform="translate(459.359985 638.26001)" fill="#7bc492"/><g id="hubspot_header_1188x756px_less_animation-s-g3" opacity="0.05"><ellipse id="hubspot_header_1188x756px_less_animation-s-ellipse1" rx="366" ry="10.59" transform="translate(724.280029 1063.040039)"/></g><path id="hubspot_header_1188x756px_less_animation-s-path2" d="M387.74,1059.02h672.23c12.7,0,30.3-22.3,30.3-39.56h-731.99c0,17.26,16.77,39.56,29.46,39.56Z" fill="#213343"/><path id="hubspot_header_1188x756px_less_animation-s-path3" d="M731.33,1019.31h-60c0,10.1,5.59,13.92,7.55,13.92h100.64c2.01,0,7.6-3.82,7.6-13.92h-55.79Z" fill="#7691ad"/></g></g><g id="hubspot_header_1188x756px_less_animation-u-ebene_11" transform="matrix(1.017952 0 0 1.017952 71.57598-369.125126)"><g id="hubspot_header_1188x756px_less_animation-s-g4" opacity="0"><g id="hubspot_header_1188x756px_less_animation-s-g5"><circle id="hubspot_header_1188x756px_less_animation-s-circle4" r="68.489998" transform="translate(602.929993 740.580017)" fill="#b9dfe3"/><path id="hubspot_header_1188x756px_less_animation-s-path4" d="M604.43,762.19v0c-4.33,0-8.58-1.16-12.33-3.33v13.61h24.97v-13.78c-3.82,2.29-8.19,3.5-12.64,3.5Z" fill="#f9ccc2"/><path id="hubspot_header_1188x756px_less_animation-s-path5" style="isolation:isolate" d="M592.1,767.69l1.96,1.94c1.07,1.06,2.69,1.33,4.05.67.61-.32.8-.63.72-.97-.2-1.06.2-2.14,1.03-2.82l.15-.13c.55-.57.54-1.47-.03-2.03-.17-.17-.39-.29-.62-.35-2.31-.74-4.31-2.22-5.69-4.21-.53-.25-1.05-.53-1.56-.82v8.72Z" opacity="0.31" fill="#ee795c"/><path id="hubspot_header_1188x756px_less_animation-s-path6" style="isolation:isolate" d="M604.43,762.19v0c-4.33,0-8.58-1.16-12.33-3.33v.7c5.65,5.12,17.19,4.64,17.19,4.64c2.6.11,5.21-.08,7.77-.57v-4.93c-3.82,2.29-8.19,3.5-12.64,3.5Z" opacity="0.68" fill="#ee795c"/><path id="hubspot_header_1188x756px_less_animation-s-path7" d="M604.43,690.1v0c-13.67,0-24.76,11.08-24.76,24.76v22.59c0,13.67,11.08,24.76,24.76,24.76v0c13.66-.01,24.73-11.09,24.73-24.76v-22.59c0-13.66-11.07-24.74-24.73-24.76Z" fill="#f9ccc2"/><path id="hubspot_header_1188x756px_less_animation-s-path8" style="isolation:isolate" d="M604.41,690.06v0c-2.27,0-4.53.3-6.72.91c10.66,3.02,18.03,12.75,18.03,23.83v22.65c0,11.08-7.37,20.81-18.03,23.83c2.19.61,4.45.92,6.72.93v0c13.66-.01,24.73-11.09,24.73-24.76v-22.65c0-13.66-11.07-24.73-24.73-24.73Z" opacity="0.31" fill="#ee795c"/><path id="hubspot_header_1188x756px_less_animation-s-path9" style="isolation:isolate" d="M599.86,729.73c.17,2.54,2.37,4.46,4.92,4.29c2.3-.16,4.14-1.99,4.29-4.29h-9.21Z" opacity="0.31" fill="#ee795c"/><path id="hubspot_header_1188x756px_less_animation-s-path10" d="M617.81,765.82c-7.59,6.95-19.23,6.95-26.82,0-13.84,5.2-23.44,17.92-24.65,32.66c23.38,14.78,53.34,14.04,75.97-1.85-1.86-14-11.28-25.85-24.5-30.8Z" fill="#545ea6"/><path id="hubspot_header_1188x756px_less_animation-s-path11" d="M604.39,774.25c6.08,0,11.82-2.77,15.59-7.54-.72-.32-1.43-.61-2.11-.88-7.59,6.95-19.23,6.95-26.82,0-.74.27-1.45.57-2.11.88c3.73,4.73,9.42,7.51,15.44,7.54Z" fill="#8285c0"/><path id="hubspot_header_1188x756px_less_animation-s-path12" style="isolation:isolate" d="M579.69,730.95c0,0,.36-.59.78-1.39.88-1.67,2.58-2.75,4.47-2.84c1.39-.06,2.65-.87,3.29-2.11c0,0,4.66-3.29,8.01-1.58.97.51,2.17.13,2.67-.84.08-.15.13-.3.17-.47.4-2.09.4-4.23,0-6.32-1.43-.94-3.09-1.46-4.8-1.52-.87,0-1.73.16-2.53.48-.72.27-2.11.4-3.9-1.29-2.25-.84-4.75.3-5.58,2.55-.13.35-.22.72-.25,1.09c0,0-1.9,1.81-2.32,14.22Z" opacity="0.31" fill="#ee795c"/><path id="hubspot_header_1188x756px_less_animation-s-path13" d="M611.72,742.33c0,0-1.03-2.11,2.61-1.96c1.62.14,3.26.07,4.87-.19c2.11-.4,5.65,0,7.98,4.61c0,0,2.21,7.61-10.81,3.18.08,0,3.03-2.7-4.66-5.65Z" fill="#f9ccc2"/><path id="hubspot_header_1188x756px_less_animation-s-path14" style="isolation:isolate" d="M592.76,709.8c-.09-1.48-1.36-2.6-2.83-2.51s-2.6,1.36-2.51,2.83c.07,1.11.82,2.07,1.89,2.4.01.28.12.55.29.76.47.62,1.36.74,1.98.27.53-.4.71-1.12.42-1.72.53-.54.8-1.27.76-2.02Z" opacity="0.31" fill="#ee795c"/><path id="hubspot_header_1188x756px_less_animation-s-path15" d="M621.68,710.09v19.15c.02,2.4,1.98,4.34,4.38,4.34v0c2.42,0,4.38-1.96,4.38-4.38v0-19.11h-8.76Z" fill="#0c8383"/><path id="hubspot_header_1188x756px_less_animation-s-path16" d="M577.78,713.86v15.36c.03,2.43,2.02,4.37,4.45,4.36v0c2.43-.01,4.39-1.98,4.4-4.4v-15.32h-8.85Z" fill="#0c8383"/><path id="hubspot_header_1188x756px_less_animation-s-path17" d="M632.79,749.62c3.52-3.67,3.99-9.31,1.12-13.5c3.42-4.64,2.57-11.14-1.92-14.75v-7.08c-.05-4.51-1.22-8.93-3.41-12.87v0l-.42-.76v-.11c-.11-.21-.23-.41-.36-.61v-.13c-.29-.48-.61-.95-.93-1.39v-.13l-.65-.53v0c-.17-.21-.34-.44-.53-.65v0c-.15-.19-.32-.36-.48-.55v-.13c-.36-.42-.74-.8-1.14-1.2l-.13-.11c-.15-.17-.32-.32-.48-.48l-.13-.11-.61-.55v0l-.61-.51-.15-.13-.51-.38v0c.15-9.07-7.08-16.55-16.16-16.71-.15,0-.3,0-.45,0v0c-9.06,0-16.41,7.33-16.43,16.39-6.78,5.12-10.77,13.12-10.77,21.62v8.76l3.94-7.82c7.18,8.06,19.54,8.78,27.6,1.6.56-.5,1.1-1.03,1.6-1.6l.19,2.76c5.01,3.88,12.01,3.88,17.02,0c0,0,1.35,1.88,1.26,1.85v17.53c-.04,8.31-4.26,16.05-11.23,20.58v0l-1.07.65v0l-1.12.63v0v2.57c0,2.08-.68,4.1-1.94,5.75l-.32.42c-.67.88-1.49,1.64-2.42,2.25-3.07,2.06-4.53,5.82-3.67,9.42.15,4.74,4.02,8.52,8.76,8.55v0c12.54-.06,22.67-10.24,22.67-22.77v0c.05-5.87-2.16-11.53-6.15-15.82Zm-20.6,29.77" fill="#2eb5b8"/><path id="hubspot_header_1188x756px_less_animation-s-path18" d="M629.24,721.38v0c1.82,0,3.3,1.48,3.3,3.31v10.15c0,1.83-1.48,3.31-3.3,3.31v0c-1.82,0-3.3-1.48-3.3-3.31v-10.15c0-1.83,1.48-3.31,3.3-3.31Z" fill="#f9ccc2"/><path id="hubspot_header_1188x756px_less_animation-s-path19" style="isolation:isolate" d="M629.24,721.38v0c1.82,0,3.3,1.48,3.3,3.31v10.15c0,1.83-1.48,3.31-3.3,3.31v0c-1.82,0-3.3-1.48-3.3-3.31v-10.15c0-1.83,1.48-3.31,3.3-3.31Z" opacity="0.31" fill="#ee795c"/><circle id="hubspot_header_1188x756px_less_animation-s-circle5" r="2.3" transform="translate(629.25 736.659973)" fill="#213343"/><path id="hubspot_header_1188x756px_less_animation-s-path20" d="M579.6,721.38v0c1.82,0,3.3,1.48,3.3,3.31v10.15c0,1.83-1.48,3.31-3.3,3.31v0c-1.82,0-3.3-1.48-3.3-3.31v-10.15c0-1.83,1.48-3.31,3.3-3.31Z" fill="#f9ccc2"/><circle id="hubspot_header_1188x756px_less_animation-s-circle6" r="2.3" transform="translate(579.440002 736.659973)" fill="#213343"/><path id="hubspot_header_1188x756px_less_animation-s-path21" d="M602.93,810.63c-38.69,0-70.05-31.36-70.05-70.05s31.36-70.05,70.05-70.05s70.05,31.36,70.05,70.05c-.03,38.67-31.38,70.02-70.05,70.05Zm0-136.94c-36.98,0-66.96,29.98-66.96,66.96s29.98,66.96,66.96,66.96s66.96-29.98,66.96-66.96v0c-.01-36.98-29.97-66.97-66.96-67.02v.06Z" fill="#e8eff5"/><path id="hubspot_header_1188x756px_less_animation-s-path22" d="M645.55,710.2c2.95-.52,5.26-2.81,5.81-5.75.03-.06.1-.09.17-.07.03.01.05.04.07.07.55,2.94,2.87,5.23,5.81,5.75.06.03.09.1.07.17-.01.03-.04.05-.07.07-2.95.53-5.27,2.83-5.81,5.77-.03.06-.1.09-.17.07-.03-.01-.05-.04-.07-.07-.54-2.95-2.86-5.26-5.81-5.79-.06-.04-.07-.12-.04-.18c0-.01.02-.03.04-.04Z" fill="#8285c0"/><path id="hubspot_header_1188x756px_less_animation-s-path23" d="M635.21,716.73c2.94-.52,5.26-2.81,5.81-5.75c0-.15.19-.15.21,0c.56,2.94,2.87,5.23,5.81,5.75.06.03.09.1.07.17-.01.03-.04.05-.07.07-2.97.53-5.29,2.85-5.84,5.81c0,.06-.05.11-.11.1-.06,0-.1-.05-.1-.1-.55-2.94-2.87-5.24-5.81-5.77-.08,0-.13-.07-.13-.15s.07-.13.15-.13Z" fill="#545ea6"/><path id="hubspot_header_1188x756px_less_animation-s-path24" d="M644.56,726.23c2.95-.53,5.26-2.83,5.81-5.77.03-.06.1-.09.17-.07.03.01.05.04.07.07.55,2.94,2.87,5.24,5.81,5.77.06,0,.11.05.1.11c0,.06-.05.1-.1.1-2.95.53-5.26,2.83-5.81,5.77-.03.06-.1.09-.17.07-.03-.01-.05-.04-.07-.07-.55-2.94-2.87-5.24-5.81-5.77-.06,0-.11-.05-.1-.11c0-.06.05-.1.1-.1Z" fill="#fff"/></g><path id="hubspot_header_1188x756px_less_animation-s-path25" d="M894.17,692.83h-214.94l24.42,25.96v59.05c0,9.4,7.62,17.02,17.02,17.02h173.51c9.4,0,17.02-7.62,17.02-17.02v-67.99c0-9.4-7.62-17.02-17.02-17.02Z" fill="#dae2eb"/></g><circle id="hubspot_header_1188x756px_less_animation-s-circle7" r="68.489998" transform="translate(841.140015 896.350027)" opacity="0" fill="#ffeac8"/><g id="hubspot_header_1188x756px_less_animation-s-g6" transform="translate(0 0.640005)" opacity="0"><g id="hubspot_header_1188x756px_less_animation-s-g7"><g id="hubspot_header_1188x756px_less_animation-s-g8"><g id="hubspot_header_1188x756px_less_animation-s-g9"><path id="hubspot_header_1188x756px_less_animation-s-path26" d="M806.92,877.41h1.89v17.23h-1.89c-3.41,0-6.19-2.77-6.19-6.19v-4.86c0-3.41,2.77-6.19,6.19-6.19Z" fill="#fab94c"/><path id="hubspot_header_1188x756px_less_animation-s-path27" d="M878.73,877.41h1.89v17.23h-1.89c-3.41,0-6.19-2.77-6.19-6.19v-4.86c0-3.41,2.77-6.19,6.19-6.19Z" transform="matrix(-1 0 0-1 1753.170044 1772.050049)" fill="#fab94c"/><rect id="hubspot_header_1188x756px_less_animation-s-rect5" width="2.92" height="7.84" rx="0" ry="0" transform="translate(839.369995 848.27002)" fill="#fab94c"/><g id="hubspot_header_1188x756px_less_animation-s-g10"><rect id="hubspot_header_1188x756px_less_animation-s-rect6" width="66.080002" height="66.080002" rx="14.05" ry="14.05" transform="translate(807.789978 855.330017)" fill="#2eb5b8"/><path id="hubspot_header_1188x756px_less_animation-s-path28" d="M811.34,864.59c0-3.21,2.6-5.8,5.8-5.8l24.14-1.5h-25.59c-3.21,0-5.8,2.6-5.8,5.8v23.23l1.44-21.74Z" fill="#b9dfe3"/></g><g id="hubspot_header_1188x756px_less_animation-s-g11"><path id="hubspot_header_1188x756px_less_animation-s-path29" d="M839.37,844.12c0-2.34,1.46-4.34,3.52-5.15-.63-.25-1.31-.39-2.02-.39-3.06,0-5.54,2.48-5.54,5.54s2.48,5.54,5.54,5.54c.71,0,1.39-.14,2.02-.39-2.06-.81-3.52-2.81-3.52-5.15Z" fill="#fab94c"/><path id="hubspot_header_1188x756px_less_animation-s-path30" d="M846.4,844.12c0-2.34-1.46-4.34-3.52-5.15-2.06.81-3.52,2.81-3.52,5.15s1.46,4.34,3.52,5.15c2.06-.81,3.52-2.81,3.52-5.15Z" fill="#2eb5b8"/></g></g><rect id="hubspot_header_1188x756px_less_animation-s-rect7" width="54.549999" height="25.360001" rx="10.43" ry="10.43" transform="translate(813.400024 869.880005)" fill="#213343"/><g id="hubspot_header_1188x756px_less_animation-s-g12"><circle id="hubspot_header_1188x756px_less_animation-s-circle8" r="3.79" transform="translate(825.820007 878.77002)" fill="#fff"/><circle id="hubspot_header_1188x756px_less_animation-s-circle9" r="3.79" transform="translate(855.539978 878.77002)" fill="#fff"/></g></g><circle id="hubspot_header_1188x756px_less_animation-s-circle10" r="3.79" transform="translate(840.679993 887.390015)" fill="#fab94c"/></g><path id="hubspot_header_1188x756px_less_animation-s-path31" d="M858.13,901.1c-2.32,4.58-7.81,9.2-17.45,9.2s-15.08-4.23-17.45-9.2" fill="none" stroke="#213343" stroke-width="1.76" stroke-linecap="round" stroke-miterlimit="10"/></g><g id="hubspot_header_1188x756px_less_animation-s-g13" transform="translate(0 0.640005)" opacity="0"><path id="hubspot_header_1188x756px_less_animation-s-path32" d="M800.52,951.05l-.7-14.94c-.14-2.52,1.86-4.64,4.38-4.64h36.24v33.65l-14.35-2.71-14.95-4.72-10.62-6.65Z" fill="#66c1c7"/><path id="hubspot_header_1188x756px_less_animation-s-path33" d="M840.45,964.2v-32.72h36.18c2.51,0,4.5,2.1,4.38,4.6l-.67,16.74-14.21,7.12-13.24,3.56-12.44.69Z" fill="#2eb5b8"/></g><path id="hubspot_header_1188x756px_less_animation-s-path34" d="M841.14,965.76c-38.69,0-70.05-31.36-70.05-70.05s31.36-70.05,70.05-70.05s70.05,31.36,70.05,70.05c-.03,38.67-31.38,70.02-70.05,70.05Zm0-136.94c-36.98,0-66.96,29.98-66.96,66.96s29.98,66.96,66.96,66.96s66.96-29.98,66.96-66.96v0c-.01-36.98-29.97-66.97-66.96-67.02v.06Z" opacity="0" fill="#e8eff5"/><path id="hubspot_header_1188x756px_less_animation-s-path35" d="M556.14,842.27h129.49c0,0,44.03,0,44.03,0h41.43c0,0-24.42,25.96-24.42,25.96v59.05c0,9.4-7.62,17.02-17.02,17.02h-173.51c-9.4,0-17.02-7.62-17.02-17.02v-67.99c0-9.4,7.62-17.02,17.02-17.02Z" transform="translate(0 0.640005)" opacity="0" fill="#dae2eb"/><circle id="hubspot_header_1188x756px_less_animation-s-circle11" r="9.79" transform="translate(840.669983 946.859985)" opacity="0" fill="#fff"/><circle id="hubspot_header_1188x756px_less_animation-s-circle12" r="11.13" transform="translate(840.669983 946.859985)" fill="none" stroke="#fff" stroke-width="0.37" stroke-miterlimit="10"/><circle id="hubspot_header_1188x756px_less_animation-s-circle13" r="11.67" transform="translate(840.669983 946.859985)" opacity="0.53" fill="none" stroke="#fff" stroke-width="1.04" stroke-miterlimit="10"/><g id="hubspot_header_1188x756px_less_animation-u-hubspot_sprocket_white_-2" opacity="0"><path id="hubspot_header_1188x756px_less_animation-s-path36" d="M842.82,945.1v-1.38c.39-.17.64-.55.63-.98v0c0-.6-.49-1.09-1.09-1.09v0c-.6,0-1.09.49-1.09,1.09v0c0,.42.25.81.63.98v1.38c-.54.08-1.05.31-1.47.65l-3.93-2.96c.01-.11.01-.21,0-.32c0-.68-.55-1.23-1.23-1.23s-1.23.55-1.23,1.23.55,1.23,1.23,1.23v0c.21,0,.42-.05.61-.17l3.83,2.99c-.73,1.05-.73,2.44,0,3.49l-1.17,1.17c-.09-.01-.18-.01-.28,0-.56,0-1.03.44-1.03,1.01c0,.56.44,1.03,1.01,1.03s1.03-.44,1.03-1.01c0,0,0,0,0-.01.02-.1.02-.19,0-.29l1.16-1.16c1.35,1.05,3.3.81,4.35-.54s.81-3.3-.54-4.35c-.42-.33-.93-.55-1.46-.62m-.47,4.66c-.88,0-1.6-.7-1.61-1.58c0-.88.7-1.6,1.58-1.61.88,0,1.6.7,1.61,1.58c0,0,0,.02,0,.03c0,.87-.71,1.58-1.58,1.58v0" fill="#ea5e3d"/></g></g><g id="hubspot_header_1188x756px_less_animation-s-g14_to" transform="translate(244.305183,398.431885)"><g id="hubspot_header_1188x756px_less_animation-s-g14" transform="translate(-244.305183,-398.431885)"><g id="hubspot_header_1188x756px_less_animation-u-ebene_15_tr" transform="translate(333.186468,340.846045) rotate(0.997838)"><g id="hubspot_header_1188x756px_less_animation-u-ebene_15" transform="scale(1.017952,1.017952) translate(-276.465927,-644.808399)"><g id="hubspot_header_1188x756px_less_animation-s-g15" transform="matrix(.999995 0.003084-.003084 0.999995 2.054494 6.579307)"><line id="hubspot_header_1188x756px_less_animation-s-line1" x1="299.77" y1="763.03" x2="309.91" y2="849.38" fill="none" stroke="#2eb5b8" stroke-width="21.23" stroke-miterlimit="10"/><line id="hubspot_header_1188x756px_less_animation-s-line2" x1="293.3" y1="680.48" x2="302.87" y2="783.14" fill="none" stroke="#2eb5b8" stroke-width="24.469999" stroke-miterlimit="10"/><circle id="hubspot_header_1188x756px_less_animation-s-circle14" r="34.990002" transform="translate(277.519989 669.880005)" fill="#0c8383"/><circle id="hubspot_header_1188x756px_less_animation-s-circle15" r="21.389999" transform="translate(302.829987 774.669983)" fill="#0c8383"/><circle id="hubspot_header_1188x756px_less_animation-s-circle16" r="21.93" transform="translate(313.160004 863.330017)" fill="#0c8383"/><path id="hubspot_header_1188x756px_less_animation-s-path37" d="M319.37,780.92c-.77,3.08-2.22,5.82-4.14,8.1c2.86-2.47,5.01-5.8,6-9.74c2.54-10.16-3.64-20.46-13.8-23-2.43-.61-4.87-.71-7.21-.39c1.48.03,2.99.22,4.49.6c10.8,2.7,17.36,13.64,14.66,24.44Z" fill="#75b8b8"/><polyline id="hubspot_header_1188x756px_less_animation-s-polyline1" points="286.03,881.39 297.74,870.27 310.04,875.82 312.42,899.14" fill="none" stroke="#0c8383" stroke-width="6.11" stroke-linecap="round" stroke-miterlimit="10"/><polyline id="hubspot_header_1188x756px_less_animation-s-polyline2" points="329.88,897.05 322.14,873.48 329.22,867.35 344.11,876.33" fill="none" stroke="#0c8383" stroke-width="6.11" stroke-linecap="round" stroke-miterlimit="10"/></g></g></g><g id="hubspot_header_1188x756px_less_animation-u-chatbot" transform="matrix(1.017952 0 0 1.017952 53.783852-306.632208)"><g id="hubspot_header_1188x756px_less_animation-s-g16"><line id="hubspot_header_1188x756px_less_animation-s-line3" x1="64.17" y1="763.03" x2="54.03" y2="849.38" fill="none" stroke="#2eb5b8" stroke-width="21.23" stroke-miterlimit="10"/><line id="hubspot_header_1188x756px_less_animation-s-line4" x1="70.64" y1="680.48" x2="61.07" y2="783.14" fill="none" stroke="#2eb5b8" stroke-width="24.469999" stroke-miterlimit="10"/><circle id="hubspot_header_1188x756px_less_animation-s-circle17" r="34.990002" transform="translate(86.419998 669.880005)" fill="#0c8383"/><circle id="hubspot_header_1188x756px_less_animation-s-circle18" r="21.389999" transform="translate(61.119999 774.669983)" fill="#0c8383"/><circle id="hubspot_header_1188x756px_less_animation-s-circle19" r="21.93" transform="translate(50.779999 863.330017)" fill="#0c8383"/><path id="hubspot_header_1188x756px_less_animation-s-path38" d="M44.57,780.92c.77,3.08,2.22,5.82,4.14,8.1-2.86-2.47-5.01-5.8-6-9.74-2.54-10.16,3.64-20.46,13.8-23c2.43-.61,4.87-.71,7.21-.39-1.48.03-2.99.22-4.49.6-10.8,2.7-17.36,13.64-14.66,24.44Z" fill="#75b8b8"/><polyline id="hubspot_header_1188x756px_less_animation-s-polyline3" points="77.91,881.39 66.2,870.27 53.91,875.82 51.52,899.14" fill="none" stroke="#0c8383" stroke-width="6.11" stroke-linecap="round" stroke-miterlimit="10"/><polyline id="hubspot_header_1188x756px_less_animation-s-polyline4" points="34.06,897.05 41.8,873.48 34.72,867.35 19.83,876.33" fill="none" stroke="#0c8383" stroke-width="6.11" stroke-linecap="round" stroke-miterlimit="10"/></g><g id="hubspot_header_1188x756px_less_animation-s-g17"><g id="hubspot_header_1188x756px_less_animation-s-g18"><g id="hubspot_header_1188x756px_less_animation-s-g19"><g id="hubspot_header_1188x756px_less_animation-s-g20"><path id="hubspot_header_1188x756px_less_animation-s-path39" d="M92.93,498.82h13.48v41.98h-13.48c-3.41,0-6.19-2.77-6.19-6.19v-29.6c0-3.41,2.77-6.19,6.19-6.19Z" fill="#fab94c"/><path id="hubspot_header_1188x756px_less_animation-s-path40" d="M267.85,498.82h13.48v41.98h-13.48c-3.41,0-6.19-2.77-6.19-6.19v-29.6c0-3.41,2.77-6.19,6.19-6.19Z" transform="matrix(-1 0 0-1 542.97998 1039.609985)" fill="#fab94c"/><rect id="hubspot_header_1188x756px_less_animation-s-rect8" width="7.12" height="19.1" rx="0" ry="0" transform="translate(180.839996 427.839996)" fill="#fab94c"/><g id="hubspot_header_1188x756px_less_animation-s-g21"><rect id="hubspot_header_1188x756px_less_animation-s-rect9" width="160.949997" height="160.949997" rx="14.05" ry="14.05" transform="translate(103.919998 445.029999)" fill="#2eb5b8"/><path id="hubspot_header_1188x756px_less_animation-s-path41" d="M112.57,467.6c0-7.81,6.33-14.14,14.14-14.14l58.81-3.65h-62.32c-7.81,0-14.14,6.33-14.14,14.14v56.59l3.51-52.94Z" fill="#b9dfe3"/></g><g id="hubspot_header_1188x756px_less_animation-s-g22"><path id="hubspot_header_1188x756px_less_animation-s-path42" d="M180.84,417.73c0-5.71,3.55-10.58,8.57-12.54-1.52-.6-3.18-.94-4.92-.94-7.45,0-13.48,6.04-13.48,13.48s6.04,13.48,13.48,13.48c1.74,0,3.39-.34,4.92-.94-5.01-1.97-8.57-6.84-8.57-12.54Z" fill="#fab94c"/><path id="hubspot_header_1188x756px_less_animation-s-path43" d="M197.97,417.73c0-5.71-3.55-10.58-8.57-12.54-5.01,1.97-8.57,6.84-8.57,12.54s3.55,10.58,8.57,12.54c5.01-1.97,8.57-6.84,8.57-12.54Z" fill="#2eb5b8"/></g></g><rect id="hubspot_header_1188x756px_less_animation-s-rect10" width="132.860001" height="61.779999" rx="30.69" ry="30.69" transform="translate(117.599998 480.470001)" fill="#213343"/><g id="hubspot_header_1188x756px_less_animation-s-g23"><circle id="hubspot_header_1188x756px_less_animation-s-circle20" r="9.23" transform="translate(147.839996 502.130005)" fill="#fff"/><circle id="hubspot_header_1188x756px_less_animation-s-circle21" r="9.23" transform="translate(220.229996 502.130005)" fill="#fff"/></g></g><circle id="hubspot_header_1188x756px_less_animation-s-circle22" r="9.23" transform="translate(184.029999 523.130005)" fill="#fab94c"/></g><path id="hubspot_header_1188x756px_less_animation-s-path44" d="M226.54,556.52c-5.65,11.16-19.03,22.4-42.51,22.4s-36.74-10.31-42.51-22.4" fill="none" stroke="#213343" stroke-width="4.28" stroke-linecap="round" stroke-miterlimit="10"/></g><g id="hubspot_header_1188x756px_less_animation-s-g24"><path id="hubspot_header_1188x756px_less_animation-s-path45" d="M115.98,960.28v12.75c0,4.4,3.57,7.97,7.97,7.97h59.53v-20.72h-67.5Z" fill="#fccb79"/><path id="hubspot_header_1188x756px_less_animation-s-path46" d="M250.84,973.04v-12.75h-67.36v20.72h59.39c4.4,0,7.97-3.57,7.97-7.97Z" fill="#fab94c"/></g><g id="hubspot_header_1188x756px_less_animation-s-g25"><path id="hubspot_header_1188x756px_less_animation-s-path47" d="M106.82,946.57v12.75c0,4.4,3.57,7.97,7.97,7.97h68.63v-20.72h-76.6Z" fill="#ea5e3d"/><path id="hubspot_header_1188x756px_less_animation-s-path48" d="M260,959.32v-12.75h-76.58v20.72h68.61c4.4,0,7.97-3.57,7.97-7.97Z" fill="#d34224"/></g><g id="hubspot_header_1188x756px_less_animation-s-g26"><g id="hubspot_header_1188x756px_less_animation-s-g27"><g id="hubspot_header_1188x756px_less_animation-s-g28"><path id="hubspot_header_1188x756px_less_animation-s-path49" d="M95.21,630.51c-6.14,0-11.01,5.16-10.67,11.29L97.99,930.63h85.49v-300.12h-88.27Z" fill="#66c1c7"/><path id="hubspot_header_1188x756px_less_animation-s-path50" d="M282.28,641.71c.3-6.1-4.56-11.21-10.67-11.21h-88.13v300.12h87.21L282.28,641.7Z" fill="#2eb5b8"/></g></g></g><path id="hubspot_header_1188x756px_less_animation-s-path51" d="M97.06,930.63v12.75c0,4.4,3.57,7.97,7.97,7.97h78.46v-20.72h-86.43Z" fill="#fccb79"/><path id="hubspot_header_1188x756px_less_animation-s-path52" d="M269.76,943.38v-12.75h-86.28v20.72h78.32c4.4,0,7.97-3.57,7.97-7.97Z" fill="#fab94c"/><circle id="hubspot_header_1188x756px_less_animation-s-circle23" r="24.030001" transform="translate(183.789993 678.630005)" fill="#fff"/><circle id="hubspot_header_1188x756px_less_animation-s-circle24" r="27.33" transform="translate(183.789993 678.630005)" fill="none" stroke="#fff" stroke-width="0.9" stroke-miterlimit="10"/><circle id="hubspot_header_1188x756px_less_animation-s-circle25" r="28.65" transform="translate(183.789993 678.630005)" opacity="0.53" fill="none" stroke="#fff" stroke-width="2.56" stroke-miterlimit="10"/><g id="hubspot_header_1188x756px_less_animation-u-hubspot_sprocket_white_"><path id="hubspot_header_1188x756px_less_animation-s-path53" d="M189.08,674.31v-3.38c.95-.42,1.56-1.36,1.56-2.4v0c0-1.48-1.2-2.67-2.67-2.67v0c-1.48,0-2.67,1.2-2.67,2.67v0c0,1.04.6,1.98,1.56,2.4v3.38c-1.33.2-2.57.75-3.62,1.59l-9.64-7.27c.03-.26.03-.52,0-.78c0-1.66-1.35-3.01-3.01-3.01s-3.01,1.35-3.01,3.01s1.35,3.01,3.01,3.01v0c.52,0,1.04-.13,1.49-.41l9.4,7.34c-1.78,2.57-1.78,5.99,0,8.56l-2.88,2.88c-.22-.03-.45-.03-.68,0-1.38-.02-2.52,1.09-2.54,2.47s1.09,2.52,2.47,2.54s2.52-1.09,2.54-2.47c0-.01,0-.02,0-.03.04-.24.04-.48,0-.71l2.84-2.84c3.31,2.59,8.1,2,10.68-1.32c2.59-3.31,2-8.1-1.32-10.68-1.04-.81-2.28-1.34-3.58-1.53m-1.15,11.43c-2.17.02-3.94-1.72-3.96-3.89s1.72-3.94,3.89-3.96s3.94,1.72,3.96,3.89c0,.02,0,.04,0,.07c0,2.15-1.74,3.89-3.89,3.89v0" fill="#ea5e3d"/></g></g></g></g><line id="hubspot_header_1188x756px_less_animation-s-line5" x1="-81.682144" y1="0" x2="81.682144" y2="0" transform="translate(893.384303 372.812479)" opacity="0" fill="none" stroke="#727784" stroke-width="3"/><line id="hubspot_header_1188x756px_less_animation-s-line6" x1="-81.682144" y1="0" x2="81.682144" y2="0" transform="translate(895.847763 407.931865)" opacity="0" fill="none" stroke="#727784" stroke-width="3"/><line id="hubspot_header_1188x756px_less_animation-s-line7" x1="-81.682144" y1="0" x2="81.682144" y2="0" transform="translate(725.10172 527.214029)" opacity="0" fill="none" stroke="#727784" stroke-width="3"/><line id="hubspot_header_1188x756px_less_animation-s-line8" x1="-81.682144" y1="0" x2="81.682144" y2="0" transform="translate(725.10172 560.368274)" opacity="0" fill="none" stroke="#727784" stroke-width="3"/></g></svg>
